HIERARCHY
ROOT hip
{
	OFFSET 0.000000 0.000000 0.000000 
	CHANNELS 6 Xposition Yposition Zposition Xrotation Zrotation Yrotation
	JOINT abdomen
	{
		OFFSET 0.000000 3.402643 0.000000 
		CHANNELS 3 Xrotation Zrotation Yrotation
		JOINT chest
		{
			OFFSET 0.000000 8.438565 -0.680529 
			CHANNELS 3 Xrotation Zrotation Yrotation
			JOINT neck
			{
				OFFSET 0.000000 10.207942 -0.272212 
				CHANNELS 3 Xrotation Zrotation Yrotation
				JOINT head
				{
					OFFSET 0.000000 3.130431 0.000000 
					CHANNELS 3 Xrotation Zrotation Yrotation
					End Site
					{
						OFFSET 0.000000 3.130435 0.000000 
					}
				}
			}
			JOINT lCollar
			{
				OFFSET 3.470700 6.669187 -0.816635 
				CHANNELS 3 Yrotation Zrotation Xrotation
				JOINT lShldr
				{
					OFFSET 3.198488 0.000000 0.000000 
					CHANNELS 3 Zrotation Yrotation Xrotation
					JOINT lForeArm
					{
						OFFSET 10.139888 0.000000 0.000000 
						CHANNELS 3 Yrotation Zrotation Xrotation
						JOINT lHand
						{
							OFFSET 8.370511 0.000000 0.000000 
							CHANNELS 3 Zrotation Yrotation Xrotation
							End Site
							{
								OFFSET 4.083176 0.000000 0.000000 
							}
						}
					}
				}
			}
			JOINT rCollar
			{
				OFFSET -3.470700 6.669187 -0.816635 
				CHANNELS 3 Yrotation Zrotation Xrotation
				JOINT rShldr
				{
					OFFSET -3.198488 0.000000 0.000000 
					CHANNELS 3 Zrotation Yrotation Xrotation
					JOINT rForeArm
					{
						OFFSET -10.139888 0.000000 0.000000 
						CHANNELS 3 Yrotation Zrotation Xrotation
						JOINT rHand
						{
							OFFSET -8.370511 0.000000 0.000000 
							CHANNELS 3 Zrotation Yrotation Xrotation
							End Site
							{
								OFFSET -4.083176 0.000000 0.000000 
							}
						}
					}
				}
			}
		}
	}
	JOINT lThigh
	{
		OFFSET 5.308129 -1.633274 1.361059 
		CHANNELS 3 Xrotation Zrotation Yrotation
		JOINT lShin
		{
			OFFSET -2.041588 -20.007561 0.000000 
			CHANNELS 3 Xrotation Zrotation Yrotation
			JOINT lFoot
			{
				OFFSET 0.000000 -19.190928 -1.224953 
				CHANNELS 3 Xrotation Yrotation Zrotation
				End Site
				{
					OFFSET 0.000000 -2.449906 4.627600 
				}
			}
		}
	}
	JOINT rThigh
	{
		OFFSET -5.308129 -1.633274 1.361059 
		CHANNELS 3 Xrotation Zrotation Yrotation
		JOINT rShin
		{
			OFFSET 2.041588 -20.007561 0.000000 
			CHANNELS 3 Xrotation Zrotation Yrotation
			JOINT rFoot
			{
				OFFSET 0.000000 -19.190928 -1.224953 
				CHANNELS 3 Xrotation Yrotation Zrotation
				End Site
				{
					OFFSET 0.000000 -2.449906 4.627600 
				}
			}
		}
	}
}
MOTION
Frames: 6
Frame Time: 0.011111
111.971634 52.481983 6.077157 2.764612 10.388605 -69.944008 16.255722 -2.439211 -2.284162 -24.466318 4.363956 -0.473108 -3.708986 9.678246 11.220911 2.108451 -26.529358 24.268888 -10.187975 -12.782608 -2.553061 -16.913343 9.838911 41.955353 -91.988922 7.132778 36.345009 8.524705 12.647240 -59.544319 11.162106 9.669281 -2.390417 42.553864 -35.591904 13.396197 84.216003 -3.722055 25.636326 -8.534408 -12.637552 44.945171 -27.182646 3.759997 -13.322208 33.830715 -5.106831 -5.358644 -17.429571 4.042259 -1.673414 -10.255839 -6.206366 0.284063 28.346989 5.399996 4.616202 -35.077126 -21.225033 -10.495231 
111.900482 52.466408 6.121762 2.779608 10.430526 -69.370171 16.244467 -2.606308 -2.011622 -24.465813 4.172862 -0.376402 -3.568794 10.282376 11.864745 2.680599 -27.203773 25.545517 -10.187975 -12.782608 -2.553061 -16.497448 9.007552 42.264355 -92.052544 7.170201 36.377918 8.524705 12.647240 -59.280651 11.162106 9.669281 -2.390417 44.051090 -35.607006 11.698462 84.200920 -3.735438 25.625261 -8.534408 -12.637552 44.681499 -27.196356 3.574133 -13.335454 33.851177 -5.098995 -5.367846 -16.850052 3.763030 -1.814801 -10.047331 -6.288098 0.201055 28.205307 5.413994 4.607195 -35.418583 -21.380234 -10.750388 
111.852341 52.452602 6.173093 2.857352 10.538310 -68.768967 16.211794 -2.717523 -1.688386 -24.426296 4.030735 -0.279175 -3.758240 10.328714 12.526180 3.487982 -27.170750 26.733940 -10.187975 -12.782608 -2.553061 -16.044817 8.187146 42.708611 -92.152893 7.228725 36.431274 8.524705 12.647240 -59.182995 11.162106 9.669281 -2.390417 45.521946 -35.491035 9.986620 84.194954 -3.743302 25.624161 -8.534408 -12.637552 44.632671 -27.364008 3.418599 -13.249340 33.869957 -5.101436 -5.389663 -16.627401 3.218773 -1.991555 -9.974960 -6.344213 0.076781 28.095327 5.415136 4.606740 -35.551208 -21.724226 -10.962133 
111.806664 52.447998 6.210263 2.965213 10.704779 -68.044449 16.109751 -2.855837 -1.377799 -24.367298 3.918237 -0.172347 -3.562719 10.196294 13.194771 3.658098 -26.967640 28.004280 -10.187975 -12.782608 -2.553061 -15.558732 7.221006 43.244305 -92.190689 7.249658 36.462601 8.524705 12.647240 -59.104870 11.162106 9.669281 -2.390417 46.917892 -35.339535 8.395622 84.187706 -3.749825 25.613415 -8.534408 -12.637552 44.788925 -27.618122 3.252847 -13.253544 33.881042 -5.097221 -5.369969 -16.583479 2.594235 -2.184722 -9.950685 -6.376650 -0.059713 27.954748 5.424176 4.586868 -35.762966 -22.195616 -11.278065 
111.735512 52.446938 6.238228 3.031304 10.751107 -67.327751 16.046072 -3.035297 -1.163280 -24.279016 3.833587 -0.094317 -3.054308 10.487360 13.748323 3.344929 -27.396709 29.199032 -10.187975 -12.782608 -2.553061 -15.142070 6.202490 43.650818 -92.142982 7.224446 36.430786 8.524705 12.647240 -59.056042 11.162106 9.669281 -2.390417 48.197384 -35.109463 6.973587 84.171249 -3.761800 25.592705 -8.534408 -12.637552 44.730324 -27.662138 3.056740 -13.418117 33.869576 -5.106901 -5.381519 -16.540712 2.089414 -2.322215 -9.691420 -6.363451 -0.162988 27.794321 5.438025 4.537214 -36.132790 -22.549356 -11.625647 
111.671799 52.448708 6.265841 3.112411 10.781054 -66.868202 16.085762 -3.060229 -1.115646 -24.142397 4.029347 -0.083234 -2.602341 10.442462 14.461870 2.664631 -27.804760 30.765984 -10.187975 -12.782608 -2.553061 -15.281422 5.561333 43.495975 -92.126419 7.212254 36.419876 8.524705 12.647240 -59.124405 11.162106 9.669281 -2.390417 48.289516 -34.542725 6.721373 84.107246 -3.823611 25.536083 -8.534408 -12.637552 44.749859 -27.683144 2.978567 -13.460397 33.869576 -5.106900 -5.381519 -16.586523 1.736244 -2.418309 -9.489367 -6.326207 -0.199989 27.643562 5.444056 4.534335 -36.244194 -22.881308 -11.839686 
